<?xml version="1.0" encoding="UTF-8"?>
<svg version="1.1" xmlns="http://www.w3.org/2000/svg" width="2367" height="2367">
<path d="M0,0 L43,0 L57,3 L71,10 L80,19 L87,33 L90,48 L90,65 L87,82 L81,96 L73,106 L63,114 L52,119 L42,122 L44,127 L59,154 L73,181 L80,193 L85,198 L89,199 L89,204 L31,204 L31,199 L36,196 L35,190 L25,171 L13,151 L1,132 L-3,126 L-3,124 L-46,128 L-45,132 L-40,196 L-37,201 L-32,203 L-32,208 L-78,214 L-79,209 L-74,205 L-73,197 L-92,26 L-94,18 L-102,16 L-102,11 L-67,6 L-28,2 Z M0,35 L-48,39 L-53,40 L-49,93 L-11,90 L22,88 L36,86 L44,82 L51,74 L54,62 L53,51 L49,43 L43,38 L36,35 Z " fill="#000000" transform="translate(1149,64)"/>
<path d="M0,0 L24,4 L65,13 L65,18 L57,21 L55,24 L55,34 L62,78 L68,127 L72,170 L75,214 L78,224 L82,227 L81,232 L70,229 L36,219 L24,216 L25,211 L31,208 L33,204 L32,168 L21,166 L-17,158 L-34,155 L-39,155 L-51,178 L-55,187 L-53,193 L-49,197 L-50,200 L-62,199 L-95,195 L-100,194 L-99,189 L-93,186 L-85,172 L-69,141 L-56,118 L-44,96 L-29,71 L-13,45 L0,25 L4,17 L4,10 L0,5 Z M17,61 L1,86 L-16,114 L-19,119 L-18,122 L22,130 L27,131 L26,114 L19,63 Z " fill="#000000" transform="translate(1384,77)"/>
<path d="M0,0 L19,1 L41,6 L62,12 L67,9 L68,7 L74,9 L72,18 L59,56 L55,57 L53,56 L49,47 L41,42 L29,38 L18,36 L-2,36 L-20,40 L-36,47 L-49,56 L-58,66 L-66,82 L-69,95 L-69,109 L-65,126 L-57,143 L-50,152 L-42,160 L-29,168 L-18,172 L-14,173 L6,173 L22,169 L38,161 L50,152 L59,143 L66,133 L68,128 L68,118 L71,115 L78,122 L87,133 L100,148 L103,152 L101,156 L98,157 L92,156 L83,165 L76,173 L63,186 L50,195 L33,203 L16,208 L3,210 L-13,210 L-29,207 L-42,202 L-55,195 L-65,187 L-74,179 L-85,165 L-95,148 L-101,133 L-105,117 L-106,111 L-106,87 L-102,69 L-96,55 L-88,43 L-77,31 L-64,21 L-45,11 L-24,4 L-10,1 Z " fill="#000000" transform="translate(896,112)"/>
<path d="M0,0 L5,1 L38,16 L78,36 L101,49 L130,66 L147,77 L153,81 L158,82 L164,78 L169,79 L170,83 L155,107 L142,127 L139,127 L136,125 L137,117 L134,112 L119,102 L94,87 L73,75 L47,61 L31,53 L23,69 L11,95 L17,97 L41,109 L64,122 L80,131 L86,130 L89,127 L94,128 L95,132 L82,154 L69,176 L66,177 L63,175 L63,165 L59,161 L36,148 L12,135 L-5,127 L-7,133 L-25,171 L-36,195 L-36,201 L-33,205 L-35,210 L-55,201 L-79,190 L-78,186 L-69,183 L-63,171 L-40,117 L-25,82 L-2,28 L3,16 L3,9 L1,5 L-1,5 Z " fill="#000000" transform="translate(1603,142)"/>
<path d="M0,0 L3,0 L16,20 L29,40 L32,46 L29,48 L25,47 L21,45 L15,45 L-6,59 L-26,73 L-45,87 L-58,97 L-72,108 L-82,116 L-80,120 L-68,134 L-56,148 L-55,150 L-50,148 L-37,137 L-21,125 L-5,113 L3,107 L5,107 L6,100 L5,94 L10,91 L22,108 L35,126 L41,135 L38,139 L34,137 L30,135 L24,136 L7,149 L-12,163 L-29,177 L-31,177 L-23,187 L-11,201 L0,214 L3,217 L19,204 L39,189 L58,175 L89,154 L90,149 L89,142 L94,140 L108,162 L123,185 L121,188 L116,187 L112,184 L107,185 L82,202 L64,215 L43,231 L29,242 L16,253 L5,262 L-4,270 L-8,266 L-7,264 L-7,258 L-15,248 L-31,231 L-38,223 L-52,208 L-59,200 L-71,187 L-80,177 L-92,164 L-101,154 L-112,142 L-121,132 L-127,125 L-131,123 L-141,124 L-142,120 L-131,110 L-120,101 L-106,89 L-92,78 L-74,64 L-58,52 L-40,39 L-24,28 L-5,15 L-3,13 L-3,2 Z " fill="#000000" transform="translate(578,243)"/>
<path d="M0,0 L4,1 L6,5 L5,13 L11,20 L21,28 L34,39 L48,51 L64,66 L74,75 L120,121 L127,129 L142,145 L147,146 L155,145 L158,150 L149,159 L141,166 L124,182 L118,187 L114,183 L115,178 L115,170 L106,159 L99,152 L92,144 L81,133 L74,125 L67,119 L58,128 L51,136 L37,151 L28,161 L16,174 L5,186 L-6,198 L-17,210 L-28,222 L-38,233 L-39,235 L-38,246 L-42,248 L-62,228 L-70,221 L-79,213 L-78,209 L-76,208 L-68,209 L-62,204 L-53,193 L-41,179 L-30,166 L-19,153 L-7,139 L2,128 L15,113 L24,102 L35,89 L29,82 L21,75 L7,63 L-6,52 L-14,46 L-21,45 L-26,48 L-30,46 L-31,43 L-19,26 L-6,8 Z " fill="#000000" transform="translate(1828,264)"/>
<path d="M0,0 L83,0 L124,3 L166,8 L207,15 L247,24 L281,33 L316,44 L354,58 L387,72 L415,85 L439,97 L462,110 L478,119 L502,134 L517,144 L533,155 L552,169 L565,179 L579,190 L593,202 L604,211 L620,226 L630,235 L664,269 L671,277 L682,289 L691,300 L704,315 L717,332 L733,353 L746,372 L756,387 L768,406 L781,428 L793,450 L805,473 L818,500 L832,533 L845,568 L856,601 L866,637 L875,675 L883,719 L889,767 L892,809 L892,892 L889,934 L883,982 L875,1026 L865,1068 L855,1103 L843,1139 L830,1173 L816,1205 L800,1238 L788,1261 L774,1285 L760,1308 L746,1329 L732,1349 L716,1370 L706,1383 L695,1396 L686,1407 L676,1418 L669,1426 L655,1441 L623,1473 L615,1480 L603,1491 L592,1500 L577,1513 L560,1526 L539,1542 L520,1555 L494,1572 L466,1589 L442,1602 L419,1614 L392,1627 L359,1641 L324,1654 L291,1665 L255,1675 L217,1684 L173,1692 L134,1697 L100,1700 L83,1701 L0,1701 L-41,1698 L-83,1693 L-124,1686 L-164,1677 L-198,1668 L-233,1657 L-271,1643 L-302,1630 L-332,1616 L-356,1604 L-379,1591 L-395,1582 L-419,1567 L-437,1555 L-457,1541 L-478,1525 L-491,1515 L-504,1504 L-515,1495 L-526,1485 L-534,1478 L-549,1464 L-581,1432 L-588,1424 L-599,1412 L-608,1401 L-621,1386 L-631,1373 L-647,1352 L-661,1332 L-673,1314 L-685,1295 L-698,1273 L-710,1251 L-722,1228 L-735,1201 L-749,1168 L-762,1133 L-773,1100 L-783,1064 L-792,1026 L-800,982 L-806,934 L-809,892 L-809,809 L-806,767 L-800,719 L-792,675 L-782,633 L-772,598 L-760,562 L-747,528 L-733,496 L-717,463 L-705,440 L-691,416 L-677,393 L-663,372 L-649,352 L-633,331 L-623,318 L-612,305 L-603,294 L-593,283 L-586,275 L-572,260 L-540,228 L-532,221 L-520,210 L-509,201 L-494,188 L-481,178 L-460,162 L-441,149 L-431,142 L-411,129 L-383,112 L-359,99 L-336,87 L-309,74 L-271,58 L-241,47 L-208,36 L-172,26 L-134,17 L-90,9 L-51,4 L-17,1 Z M-9,102 L-29,105 L-49,111 L-70,121 L-87,133 L-99,144 L-110,156 L-120,171 L-128,186 L-134,203 L-138,219 L-140,238 L-139,259 L-135,279 L-128,299 L-119,316 L-109,330 L-97,343 L-94,345 L-89,344 L-87,342 L-88,336 L-94,321 L-98,305 L-99,298 L-99,272 L-96,255 L-89,236 L-83,225 L-75,214 L-66,204 L-57,196 L-43,187 L-28,180 L-15,176 L6,173 L19,173 L35,175 L53,180 L69,188 L80,195 L93,206 L103,218 L111,231 L115,239 L115,246 L113,247 L95,248 L75,252 L56,259 L41,267 L28,277 L19,285 L18,289 L22,293 L31,290 L46,285 L61,282 L69,281 L92,281 L111,284 L128,289 L132,288 L135,284 L140,263 L141,255 L141,230 L138,212 L132,192 L123,173 L115,161 L107,151 L97,140 L86,131 L76,124 L60,115 L45,109 L25,104 L11,102 Z M213,288 L209,292 L205,320 L201,337 L195,354 L184,377 L174,392 L163,406 L145,424 L132,434 L116,444 L100,452 L85,458 L68,463 L44,468 L29,474 L17,481 L4,492 L-7,506 L-15,522 L-19,534 L-29,590 L-38,629 L-47,661 L-55,687 L-65,711 L-78,736 L-89,753 L-101,769 L-112,782 L-124,795 L-138,808 L-152,819 L-166,829 L-184,840 L-209,854 L-227,866 L-239,875 L-252,886 L-262,895 L-277,910 L-286,921 L-297,935 L-309,953 L-321,974 L-330,993 L-339,1017 L-346,1041 L-351,1067 L-353,1083 L-354,1097 L-354,1124 L-352,1145 L-348,1149 L-343,1148 L-340,1141 L-332,1114 L-324,1093 L-313,1069 L-303,1051 L-289,1030 L-276,1013 L-263,998 L-242,977 L-231,968 L-216,956 L-204,948 L-189,936 L-178,927 L-163,914 L-148,900 L-121,873 L-114,865 L-102,851 L-91,837 L-79,821 L-63,798 L-53,785 L-43,774 L-32,765 L-20,756 L-4,747 L11,740 L31,734 L46,731 L59,729 L62,726 L62,721 L52,714 L43,707 L34,697 L26,684 L21,670 L19,662 L18,652 L18,642 L20,628 L24,615 L32,600 L41,589 L50,581 L64,573 L77,568 L86,566 L95,565 L118,565 L124,561 L128,555 L131,534 L136,520 L142,510 L149,502 L149,500 L153,498 L164,488 L172,481 L184,468 L194,455 L204,440 L217,415 L226,391 L231,371 L232,363 L232,336 L229,318 L222,297 L219,291 L215,288 Z M53,348 L33,352 L16,358 L0,366 L-12,374 L-26,385 L-39,393 L-62,405 L-83,413 L-106,419 L-131,424 L-151,430 L-169,438 L-184,446 L-196,454 L-210,465 L-223,477 L-234,489 L-245,504 L-254,519 L-262,535 L-269,553 L-275,577 L-278,600 L-276,605 L-275,606 L-270,606 L-266,601 L-258,587 L-248,573 L-239,562 L-227,549 L-213,537 L-196,525 L-174,513 L-154,505 L-133,499 L-106,493 L-82,485 L-58,474 L-42,465 L-26,454 L-15,445 L-3,434 L8,423 L15,414 L26,402 L41,390 L54,382 L70,374 L88,368 L108,364 L112,359 L109,354 L101,351 L85,348 Z M253,432 L250,436 L242,457 L230,482 L218,502 L204,521 L193,534 L181,547 L172,561 L166,574 L162,589 L161,595 L161,617 L165,635 L169,653 L169,683 L165,700 L160,713 L153,726 L143,739 L132,750 L124,757 L113,768 L103,781 L92,799 L85,814 L78,835 L76,846 L79,850 L84,850 L94,838 L103,827 L114,815 L122,806 L130,799 L142,788 L156,777 L174,764 L194,752 L210,745 L231,739 L244,737 L257,736 L289,736 L306,734 L323,730 L333,727 L337,723 L338,720 L335,715 L315,704 L301,695 L285,683 L274,674 L262,663 L254,656 L242,643 L236,633 L232,621 L232,603 L236,591 L242,581 L250,570 L259,554 L266,536 L271,515 L272,508 L272,477 L269,460 L264,443 L260,434 L258,432 Z M-96,552 L-101,557 L-109,573 L-118,589 L-131,608 L-141,621 L-153,635 L-176,658 L-187,667 L-204,680 L-223,692 L-241,702 L-260,712 L-281,726 L-295,737 L-307,748 L-316,756 L-323,764 L-335,778 L-348,796 L-359,815 L-367,831 L-374,847 L-383,874 L-388,896 L-391,919 L-391,954 L-389,956 L-382,955 L-371,931 L-359,908 L-347,889 L-333,870 L-324,859 L-313,847 L-304,837 L-296,830 L-284,819 L-267,806 L-243,790 L-227,781 L-206,770 L-185,756 L-174,747 L-164,738 L-147,721 L-136,707 L-126,693 L-116,675 L-108,659 L-99,634 L-93,610 L-90,591 L-89,580 L-89,557 L-94,552 Z M82,595 L79,598 L75,609 L75,620 L78,630 L84,639 L92,646 L100,650 L109,652 L120,651 L130,647 L137,642 L138,636 L129,628 L124,624 L118,624 L117,625 L107,625 L102,621 L101,612 L101,606 L88,596 L87,595 Z M48,640 L45,644 L46,658 L51,670 L59,681 L67,687 L82,695 L91,703 L96,711 L100,723 L104,727 L109,725 L113,717 L115,705 L113,694 L107,683 L103,678 L93,671 L75,664 L64,656 L57,645 L53,640 Z M24,805 L10,817 L0,826 L-17,842 L-32,858 L-42,869 L-51,880 L-63,895 L-74,910 L-82,926 L-87,942 L-88,948 L-88,972 L-84,989 L-79,1001 L-73,1012 L-65,1022 L-54,1033 L-44,1040 L-34,1045 L-4,1055 L22,1061 L22,1068 L10,1071 L2,1072 L-25,1072 L-43,1069 L-59,1064 L-66,1061 L-71,1062 L-74,1067 L-68,1082 L-61,1094 L-52,1105 L-42,1114 L-29,1122 L-15,1128 L4,1134 L5,1135 L5,1141 L4,1142 L-24,1142 L-49,1139 L-63,1137 L-58,1150 L-48,1166 L-36,1179 L-24,1189 L-8,1198 L8,1204 L23,1207 L33,1208 L43,1208 L67,1205 L86,1200 L105,1192 L120,1184 L134,1174 L149,1161 L159,1149 L165,1136 L168,1123 L168,1109 L164,1093 L157,1080 L145,1063 L136,1052 L127,1042 L109,1024 L101,1017 L91,1006 L82,992 L75,978 L70,963 L67,948 L66,938 L66,920 L62,916 L57,917 L53,922 L46,937 L42,952 L41,968 L44,987 L50,1002 L52,1006 L52,1012 L51,1013 L45,1013 L32,1003 L23,994 L13,980 L5,964 L0,949 L-3,933 L-3,909 L0,892 L5,877 L15,858 L24,841 L29,826 L32,809 L29,805 Z M150,925 L136,927 L121,932 L110,939 L107,942 L108,947 L111,949 L136,951 L152,956 L166,963 L175,970 L188,979 L207,988 L222,992 L237,994 L250,994 L269,991 L274,990 L291,990 L303,993 L314,999 L322,1006 L326,1010 L331,1009 L333,1007 L332,997 L327,983 L320,973 L315,967 L304,959 L291,953 L282,951 L267,951 L250,955 L243,956 L231,956 L217,953 L203,946 L190,936 L175,929 L163,926 Z M-135,969 L-152,978 L-170,990 L-183,1000 L-197,1012 L-213,1028 L-222,1039 L-232,1052 L-244,1071 L-256,1094 L-264,1114 L-272,1140 L-277,1167 L-278,1175 L-278,1213 L-275,1239 L-270,1265 L-262,1292 L-249,1328 L-243,1350 L-239,1376 L-238,1386 L-238,1437 L-234,1440 L-230,1439 L-225,1431 L-217,1415 L-209,1396 L-200,1369 L-194,1344 L-190,1323 L-188,1305 L-188,1251 L-194,1201 L-194,1154 L-191,1129 L-186,1103 L-178,1076 L-167,1048 L-157,1028 L-145,1008 L-137,995 L-128,976 L-129,971 L-132,969 Z M367,1024 L363,1027 L357,1039 L352,1045 L336,1057 L316,1069 L296,1078 L271,1088 L252,1097 L229,1110 L220,1117 L214,1122 L206,1133 L200,1145 L196,1161 L196,1173 L200,1189 L208,1205 L215,1214 L224,1224 L237,1236 L251,1247 L268,1259 L286,1270 L291,1270 L294,1266 L292,1261 L284,1252 L272,1236 L260,1218 L254,1208 L252,1202 L252,1185 L256,1175 L263,1167 L272,1162 L293,1159 L321,1154 L326,1152 L329,1149 L328,1144 L325,1142 L303,1140 L290,1136 L288,1135 L288,1128 L307,1119 L326,1107 L339,1096 L349,1087 L356,1080 L367,1066 L373,1054 L375,1047 L375,1033 L372,1026 L370,1024 Z M-116,1140 L-120,1144 L-127,1168 L-133,1197 L-136,1224 L-136,1266 L-133,1294 L-128,1320 L-122,1346 L-119,1367 L-118,1382 L-118,1401 L-120,1429 L-120,1445 L-118,1464 L-114,1484 L-107,1505 L-97,1526 L-86,1543 L-75,1557 L-62,1571 L-51,1580 L-38,1590 L-25,1598 L-20,1597 L-18,1594 L-19,1589 L-29,1571 L-39,1546 L-46,1521 L-49,1502 L-50,1492 L-51,1424 L-55,1390 L-63,1354 L-75,1318 L-87,1288 L-95,1263 L-102,1235 L-106,1208 L-108,1188 L-109,1144 L-113,1140 Z M81,1249 L60,1252 L40,1258 L30,1262 L18,1270 L7,1280 L-3,1294 L-10,1310 L-13,1324 L-13,1343 L-9,1360 L-1,1376 L7,1387 L9,1389 L14,1389 L17,1385 L22,1375 L27,1370 L33,1370 L34,1371 L36,1387 L40,1397 L45,1403 L51,1402 L54,1394 L60,1382 L66,1382 L69,1389 L76,1403 L80,1408 L84,1409 L88,1406 L90,1388 L99,1388 L101,1394 L109,1408 L121,1421 L124,1424 L129,1423 L131,1421 L130,1414 L124,1395 L119,1373 L117,1359 L116,1345 L116,1317 L118,1296 L121,1280 L120,1275 L117,1273 L112,1274 L102,1280 L94,1287 L89,1286 L88,1281 L91,1268 L97,1255 L95,1250 L93,1249 Z " fill="#000000" transform="translate(1142,333)"/>
<path d="M0,0 L15,0 L31,3 L46,9 L62,18 L76,29 L90,42 L99,53 L108,65 L116,81 L120,92 L122,102 L122,124 L118,137 L110,152 L99,166 L86,182 L72,201 L59,219 L50,232 L46,231 L44,222 L36,216 L14,202 L-8,188 L-30,174 L-55,158 L-77,144 L-99,130 L-109,124 L-116,124 L-119,126 L-124,125 L-122,120 L-106,97 L-92,78 L-82,65 L-71,51 L-58,35 L-48,24 L-37,15 L-25,7 L-11,2 Z M6,37 L-5,39 L-17,45 L-27,54 L-36,63 L-47,77 L-61,95 L-67,103 L-66,107 L-54,115 L-38,126 L-19,139 L-3,150 L16,163 L32,174 L43,181 L59,160 L72,144 L81,130 L86,118 L86,102 L82,90 L76,80 L68,70 L57,59 L44,49 L28,41 L18,38 Z " fill="#000000" transform="translate(369,457)"/>
<path d="M0,0 L21,0 L34,4 L45,10 L54,18 L61,28 L66,39 L68,47 L68,68 L64,81 L58,92 L50,101 L40,108 L29,113 L21,115 L0,115 L-13,111 L-24,105 L-34,96 L-41,85 L-46,73 L-47,68 L-47,47 L-43,34 L-37,23 L-29,14 L-19,7 L-8,2 Z " fill="#000000" transform="translate(2032,611)"/>
<path d="M0,0 L6,2 L25,12 L48,24 L49,27 L46,30 L38,29 L34,33 L17,66 L2,99 L-11,131 L-17,146 L-21,145 L-24,137 L-36,132 L-96,111 L-144,94 L-195,76 L-202,76 L-207,81 L-212,80 L-209,70 L-196,37 L-191,26 L-187,27 L-185,37 L-175,42 L-136,57 L-95,73 L-54,89 L-39,95 L-35,96 L-34,91 L-21,62 L-6,31 L3,14 L2,9 L-2,5 L-1,1 Z " fill="#000000" transform="translate(342,727)"/>
<path d="M0,0 L10,0 L22,2 L34,7 L45,15 L54,25 L62,38 L67,49 L71,62 L73,77 L73,90 L70,109 L67,120 L67,125 L70,129 L69,132 L59,132 L15,128 L17,123 L26,119 L32,111 L36,100 L38,86 L37,72 L33,59 L26,48 L18,42 L11,39 L-1,39 L-9,43 L-12,47 L-13,50 L-13,60 L-8,93 L-7,111 L-10,124 L-17,135 L-27,143 L-40,149 L-54,153 L-60,154 L-84,154 L-99,150 L-110,144 L-120,135 L-127,124 L-132,112 L-135,97 L-135,83 L-131,58 L-131,52 L-135,50 L-134,45 L-83,45 L-84,50 L-90,53 L-95,61 L-100,77 L-100,95 L-96,107 L-90,116 L-83,120 L-79,121 L-68,121 L-59,117 L-56,113 L-55,109 L-56,94 L-60,69 L-60,46 L-57,36 L-52,27 L-45,19 L-32,10 L-19,4 L-8,1 Z " fill="#000000" transform="translate(2199,834)"/>
<path d="M0,0 L5,1 L6,11 L13,21 L22,31 L33,43 L76,86 L84,93 L96,104 L108,107 L165,118 L175,118 L178,117 L179,114 L184,114 L183,123 L177,159 L176,161 L171,160 L168,154 L163,152 L93,141 L88,142 L60,154 L32,167 L-4,185 L-21,195 L-28,202 L-31,209 L-35,208 L-35,197 L-31,154 L-28,131 L-26,130 L-23,131 L-20,139 L-14,141 L3,134 L34,120 L46,115 L46,113 L29,97 L17,86 L6,75 L-2,69 L-9,70 L-13,75 L-18,75 L-13,50 L-2,6 Z " fill="#000000" transform="translate(109,871)"/>
<path d="M0,0 L6,0 L7,7 L1,11 L2,22 L8,60 L13,105 L15,130 L15,141 L8,141 L4,137 L-26,137 L-177,142 L-184,145 L-190,147 L-192,147 L-196,102 L-201,64 L-205,42 L-214,38 L-214,33 L-169,26 L-164,26 L-163,32 L-169,36 L-168,47 L-162,87 L-160,105 L-160,115 L-126,113 L-111,113 L-117,63 L-119,60 L-126,58 L-127,52 L-116,50 L-83,46 L-76,46 L-75,52 L-81,56 L-81,65 L-76,108 L-76,111 L-74,110 L-40,108 L-22,108 L-29,52 L-34,21 L-35,16 L-44,13 L-44,7 Z " fill="#000000" transform="translate(2301,1020)"/>
<path d="M0,0 L5,0 L9,9 L14,13 L37,23 L74,37 L110,50 L155,65 L185,74 L196,75 L200,72 L202,67 L206,67 L207,69 L210,109 L211,124 L206,124 L203,119 L200,117 L192,118 L154,134 L125,147 L91,163 L67,175 L107,184 L147,192 L205,202 L212,202 L215,201 L218,192 L222,191 L229,221 L235,244 L235,249 L231,250 L226,245 L220,244 L204,253 L177,271 L155,286 L138,298 L119,312 L101,326 L87,337 L74,348 L67,355 L65,361 L64,369 L60,370 L48,334 L39,304 L39,300 L44,300 L49,306 L55,306 L65,300 L84,286 L107,270 L128,256 L153,240 L164,233 L155,231 L101,222 L41,210 L37,209 L28,209 L25,213 L24,219 L19,220 L11,174 L7,143 L12,143 L17,150 L24,151 L49,139 L86,122 L126,105 L143,98 L100,85 L54,70 L20,58 L12,57 L7,62 L6,66 L1,67 L0,53 Z " fill="#000000" transform="translate(72,1115)"/>
<path d="M0,0 L6,0 L7,3 L16,5 L168,11 L196,11 L200,7 L207,7 L206,46 L205,47 L199,47 L193,42 L152,39 L27,31 L9,31 L5,34 L-1,33 L-1,2 Z " fill="#000000" transform="translate(2111,1222)"/>
<path d="M0,0 L29,0 L46,3 L60,8 L71,15 L79,24 L83,33 L84,41 L135,28 L158,21 L166,16 L169,12 L175,13 L174,28 L170,57 L163,56 L162,52 L153,52 L123,59 L87,67 L83,67 L81,80 L75,108 L84,109 L138,121 L146,122 L151,119 L158,120 L151,151 L149,158 L142,157 L140,151 L124,147 L-33,108 L-43,107 L-48,109 L-53,107 L-42,58 L-37,32 L-33,20 L-29,14 L-21,7 L-10,2 Z M12,29 L4,32 L-1,36 L-4,44 L-12,84 L-12,88 L4,92 L39,100 L41,100 L46,78 L50,57 L50,44 L46,38 L41,34 L29,30 L22,29 Z " fill="#000000" transform="translate(2137,1310)"/>
<path d="M0,0 L18,0 L36,2 L61,8 L78,14 L94,22 L104,28 L113,35 L123,44 L131,54 L138,68 L141,81 L141,92 L138,106 L133,118 L125,129 L118,136 L104,144 L91,148 L85,149 L56,149 L36,145 L18,139 L-5,128 L-19,119 L-32,109 L-44,98 L-55,84 L-61,72 L-64,61 L-64,47 L-61,35 L-55,24 L-45,14 L-33,7 L-16,2 Z M-1,30 L-15,34 L-23,40 L-28,46 L-30,52 L-30,60 L-26,70 L-18,81 L-11,88 L3,98 L20,107 L39,114 L52,117 L60,118 L71,118 L85,115 L95,110 L102,102 L106,91 L106,84 L103,74 L95,63 L84,53 L71,45 L55,38 L35,32 L24,30 Z " fill="#000000" transform="translate(2111,1483)"/>
<path d="M0,0 L21,0 L34,4 L45,10 L55,19 L62,30 L67,42 L68,47 L68,68 L64,81 L58,92 L49,102 L38,109 L26,114 L21,115 L0,115 L-13,111 L-24,105 L-33,97 L-40,87 L-45,76 L-47,68 L-47,47 L-43,34 L-37,23 L-29,14 L-19,7 L-8,2 Z " fill="#000000" transform="translate(303,1605)"/>
<path d="M0,0 L4,1 L6,2 L9,8 L31,20 L63,37 L91,52 L123,69 L151,84 L168,93 L174,94 L179,93 L183,95 L182,99 L170,120 L164,129 L158,126 L156,120 L147,114 L124,101 L99,87 L78,75 L53,61 L45,57 L61,74 L75,89 L84,99 L93,109 L102,120 L113,132 L122,143 L133,156 L140,165 L140,166 L131,165 L77,151 L36,139 L1,128 L-2,128 L21,144 L40,157 L56,168 L79,184 L100,198 L107,199 L112,200 L114,204 L98,225 L92,233 L86,230 L84,222 L68,210 L50,197 L32,184 L14,171 L-4,158 L-23,144 L-37,134 L-55,121 L-63,116 L-71,115 L-74,112 L-72,107 L-58,89 L-50,78 L-45,80 L-42,86 L-34,91 L15,107 L66,122 L75,124 L63,111 L54,100 L47,93 L40,85 L26,70 L14,57 L-5,38 L-9,36 L-16,36 L-19,34 L-18,30 L-4,6 Z M42,54 Z M43,55 Z " fill="#000000" transform="translate(2002,1618)"/>
<path d="M0,0 L4,1 L21,15 L37,28 L40,30 L39,34 L35,35 L28,34 L13,50 L4,60 L-20,84 L-14,91 L10,115 L14,117 L45,86 L44,79 L44,75 L48,73 L59,83 L70,92 L81,102 L85,105 L83,109 L80,110 L73,108 L68,113 L39,142 L44,148 L52,155 L76,179 L83,173 L106,150 L113,142 L129,125 L132,121 L132,116 L130,111 L133,108 L138,110 L152,122 L166,133 L173,139 L170,144 L160,143 L144,160 L135,170 L126,179 L119,187 L97,209 L89,216 L79,226 L75,225 L73,223 L73,217 L69,211 L35,177 L28,169 L-22,119 L-29,111 L-53,87 L-63,83 L-65,79 L-50,64 L-42,57 L-29,44 L-22,36 L-12,26 L-5,18 L1,11 L-1,6 L-2,2 Z " fill="#000000" transform="translate(1890,1761)"/>
<path d="M0,0 L25,0 L37,3 L52,11 L64,22 L71,30 L79,46 L82,60 L85,85 L85,89 L91,89 L91,94 L72,104 L53,113 L50,113 L50,108 L54,103 L56,97 L56,83 L53,69 L49,59 L42,50 L34,43 L23,38 L18,37 L3,37 L-12,41 L-28,49 L-42,60 L-51,69 L-60,82 L-66,95 L-69,109 L-69,120 L-66,132 L-60,143 L-50,154 L-39,161 L-27,165 L-22,166 L-4,166 L2,162 L6,159 L9,159 L8,166 L-2,202 L-3,204 L-8,204 L-9,197 L-34,195 L-49,192 L-60,188 L-72,181 L-84,170 L-94,157 L-102,142 L-106,129 L-107,122 L-107,102 L-104,87 L-98,72 L-90,58 L-82,48 L-73,38 L-62,28 L-46,17 L-29,8 L-14,3 Z " fill="#000000" transform="translate(489,1814)"/>
<path d="M0,0 L4,1 L6,5 L7,11 L16,22 L25,32 L34,43 L43,53 L52,64 L62,75 L71,86 L81,97 L90,108 L100,119 L109,130 L118,140 L124,147 L133,150 L135,152 L134,156 L120,167 L108,177 L104,176 L102,174 L102,167 L96,158 L85,145 L74,131 L62,117 L51,103 L39,89 L28,75 L22,68 L28,84 L45,128 L62,176 L71,204 L68,204 L49,191 L31,178 L13,165 L-8,149 L-24,137 L-40,124 L-47,119 L-40,130 L-21,158 L-2,186 L17,214 L24,223 L31,225 L33,228 L32,232 L17,242 L3,251 L0,250 L-2,245 L-1,240 L-5,232 L-16,215 L-32,190 L-45,170 L-61,145 L-72,128 L-83,111 L-98,88 L-103,85 L-108,80 L-103,75 L-87,65 L-74,56 L-72,56 L-69,60 L-69,66 L-65,72 L-51,84 L-41,92 L-27,103 L-13,114 L0,124 L20,139 L25,142 L11,103 L-6,60 L-16,36 L-19,32 L-19,30 L-26,29 L-29,25 L-29,23 L-12,10 Z M20,65 L21,67 Z M-50,116 Z M-49,117 Z " fill="#000000" transform="translate(1786,1874)"/>
<path d="M0,0 L4,1 L15,10 L33,24 L51,37 L68,49 L76,56 L82,65 L85,76 L85,89 L81,105 L74,121 L65,136 L54,148 L45,155 L35,159 L17,159 L13,158 L10,175 L4,220 L3,240 L6,247 L7,249 L4,254 L-4,250 L-23,238 L-35,230 L-33,224 L-26,222 L-23,211 L-15,159 L-13,144 L-30,132 L-46,120 L-48,120 L-60,137 L-73,155 L-86,173 L-88,177 L-88,186 L-90,189 L-94,188 L-108,177 L-124,164 L-122,159 L-117,158 L-112,156 L-97,136 L-83,118 L-74,106 L-58,85 L-46,69 L-33,52 L-17,31 L-5,15 L-3,11 L-2,3 Z M4,47 L-8,63 L-20,80 L-27,90 L-23,94 L-4,108 L15,121 L21,124 L29,124 L36,120 L44,111 L51,97 L52,93 L52,86 L48,78 L35,68 L18,56 L6,47 Z " fill="#000000" transform="translate(635,1916)"/>
<path d="M0,0 L12,5 L37,16 L35,22 L29,26 L26,33 L23,56 L18,106 L14,163 L13,182 L13,217 L16,222 L17,226 L15,230 L-9,222 L-32,213 L-30,207 L-24,204 L-21,199 L-19,176 L-18,162 L-31,156 L-56,145 L-70,139 L-77,146 L-84,154 L-93,164 L-96,170 L-95,175 L-94,181 L-96,184 L-102,182 L-126,170 L-137,164 L-134,158 L-126,156 L-116,147 L-100,130 L-92,122 L-85,114 L-70,98 L-63,90 L-51,76 L-41,65 L-32,54 L-20,40 L-9,26 L-3,17 L-2,15 L-2,3 Z M-6,60 L-17,74 L-30,90 L-38,100 L-49,113 L-49,116 L-25,127 L-14,131 L-5,65 L-5,60 Z " fill="#000000" transform="translate(813,2028)"/>
<path d="M0,0 L6,0 L12,28 L15,44 L15,50 L11,49 L7,42 L-5,36 L-10,35 L-27,35 L-37,39 L-43,44 L-49,54 L-53,70 L-53,90 L-49,109 L-44,124 L-36,140 L-28,151 L-20,159 L-10,165 L2,168 L12,167 L24,162 L34,155 L43,145 L45,140 L37,121 L17,129 L11,132 L9,132 L9,141 L3,143 L-8,116 L-15,98 L-14,95 L-9,94 L-4,99 L5,96 L41,80 L49,76 L52,77 L53,84 L54,93 L71,129 L74,132 L78,133 L80,137 L79,143 L71,159 L63,171 L52,183 L44,190 L30,198 L19,202 L7,204 L-3,204 L-17,201 L-33,193 L-44,184 L-54,173 L-65,155 L-73,136 L-79,117 L-83,98 L-84,90 L-84,60 L-80,42 L-75,30 L-68,19 L-59,11 L-45,4 L-37,2 L-21,2 L-1,5 Z " fill="#000000" transform="translate(1569,2028)"/>
<path d="M0,0 L17,4 L54,13 L91,20 L96,20 L99,14 L105,14 L104,23 L97,64 L93,65 L91,64 L88,56 L38,46 L18,41 L14,58 L7,84 L7,88 L47,97 L57,98 L59,98 L61,93 L65,92 L67,93 L66,103 L58,143 L53,143 L49,134 L0,123 L-4,122 L-5,130 L-21,190 L-22,198 L-19,204 L-21,209 L-32,207 L-58,200 L-57,193 L-51,189 L-46,174 L-22,91 L-2,22 L0,15 L-1,3 Z " fill="#000000" transform="translate(932,2073)"/>
<path d="M0,0 L4,1 L5,6 L3,10 L4,19 L45,183 L48,189 L53,193 L54,198 L38,203 L13,209 L12,202 L14,197 L10,190 L-6,174 L-13,166 L-21,158 L-28,150 L-39,138 L-48,127 L-57,117 L-68,103 L-78,91 L-77,103 L-62,206 L-59,215 L-55,217 L-55,224 L-85,229 L-92,229 L-93,228 L-93,223 L-90,219 L-90,209 L-110,44 L-112,35 L-116,31 L-116,25 L-82,19 L-79,19 L-79,27 L-80,28 L-80,34 L-73,45 L-60,61 L-52,71 L-43,82 L-31,96 L-22,106 L-15,114 L-4,126 L5,136 L0,111 L-20,22 L-23,16 L-26,14 L-27,7 Z M-80,88 Z " fill="#000000" transform="translate(1414,2070)"/>
<path d="M0,0 L5,0 L7,8 L24,10 L56,12 L99,12 L102,5 L108,5 L107,56 L101,56 L98,49 L62,47 L61,72 L53,195 L53,208 L57,213 L56,219 L35,219 L18,218 L19,211 L23,207 L25,194 L38,48 L39,46 L18,45 L3,44 L0,48 L-1,51 L-7,51 L-6,38 L-1,1 Z " fill="#000000" transform="translate(1070,2092)"/>
<path d="M0,0 L11,0 L12,6 L9,10 L9,28 L17,179 L18,192 L19,197 L23,199 L23,205 L20,206 L-6,208 L-15,208 L-15,201 L-12,198 L-11,196 L-11,173 L-15,38 L-16,15 L-18,10 L-20,9 L-20,2 Z " fill="#000000" transform="translate(1235,2102)"/>
</svg>
